<svg xmlns="http://www.w3.org/2000/svg" width="1000" height="6000" viewBox="0 0 1000 6000"><rect x="0" y="0" width="1000" height="6000" fill="#fcfbf7"/>
<g data-sketch-id="line-j1" data-interpretation="straight line" transform="translate(0 0)"><rect x="0" y="0" width="1000" height="600" fill="#fcfbf7"/><text x="24" y="36" font-size="18" fill="#26231F">straight line (line-j1)</text><path d="M 116.9 297.5 L 221.7 305.2 L 322.2 297.4 L 417.1 299.9 L 519.4 303.1" stroke="#26231F" stroke-width="4" stroke-linecap="round" stroke-linejoin="round" fill="none"/></g>
<g data-sketch-id="underline-j1" data-interpretation="underline" transform="translate(0 600)"><rect x="0" y="0" width="1000" height="600" fill="#fcfbf7"/><text x="24" y="36" font-size="18" fill="#26231F">underline (underline-j1)</text><path d="M 176.9 407.5 L 281.7 415.2 L 382.2 409.4 L 477.1 411.9 L 579.4 415.1" stroke="#26231F" stroke-width="4" stroke-linecap="round" stroke-linejoin="round" fill="none"/></g>
<g data-sketch-id="circle-j1" data-interpretation="circle" transform="translate(0 1200)"><rect x="0" y="0" width="1000" height="600" fill="#fcfbf7"/><text x="24" y="36" font-size="18" fill="#26231F">circle (circle-j1)</text><path d="M 496.9 167.5 L 571.7 193.2 L 602.2 248.4 L 572.1 313.9 L 504.4 343.1 L 438.2 312.2 L 403.8 250.5 L 427.4 192.2 L 502.6 166.8" stroke="#26231F" stroke-width="4" stroke-linecap="round" stroke-linejoin="round" fill="none"/></g>
<g data-sketch-id="triangle-j1" data-interpretation="triangle" transform="translate(0 1800)"><rect x="0" y="0" width="1000" height="600" fill="#fcfbf7"/><text x="24" y="36" font-size="18" fill="#26231F">triangle (triangle-j1)</text><path d="M 496.9 127.5 L 681.7 393.2 L 322.2 388.4 L 497.1 128.8" stroke="#26231F" stroke-width="4" stroke-linecap="round" stroke-linejoin="round" fill="none"/></g>
<g data-sketch-id="arrow-j1" data-interpretation="right arrow" transform="translate(0 2400)"><rect x="0" y="0" width="1000" height="600" fill="#fcfbf7"/><text x="24" y="36" font-size="18" fill="#26231F">right arrow (arrow-j1)</text><path d="M 236.9 297.5 L 651.7 303.2 L 592.2 243.4 L 647.1 298.9 L 589.4 358.1" stroke="#26231F" stroke-width="4" stroke-linecap="round" stroke-linejoin="round" fill="none"/></g>
<g data-sketch-id="cross-j1" data-interpretation="cross mark" transform="translate(0 3000)"><rect x="0" y="0" width="1000" height="600" fill="#fcfbf7"/><text x="24" y="36" font-size="18" fill="#26231F">cross mark (cross-j1)</text><path d="M 386.9 207.5 L 611.7 393.2 L 502.2 298.4 L 607.1 208.8 L 389.4 393.1" stroke="#26231F" stroke-width="4" stroke-linecap="round" stroke-linejoin="round" fill="none"/></g>
<g data-sketch-id="check-j1" data-interpretation="check mark" transform="translate(0 3600)"><rect x="0" y="0" width="1000" height="600" fill="#fcfbf7"/><text x="24" y="36" font-size="18" fill="#26231F">check mark (check-j1)</text><path d="M 296.9 307.5 L 431.7 423.2 L 702.2 168.4" stroke="#26231F" stroke-width="4" stroke-linecap="round" stroke-linejoin="round" fill="none"/></g>
<g data-sketch-id="closed-box-j1" data-interpretation="box" transform="translate(0 4200)"><rect x="0" y="0" width="1000" height="600" fill="#fcfbf7"/><text x="24" y="36" font-size="18" fill="#26231F">box (closed-box-j1)</text><path d="M 296.9 177.5 L 701.7 183.2 L 702.2 418.4 L 297.1 418.9 L 299.4 183.1" stroke="#26231F" stroke-width="4" stroke-linecap="round" stroke-linejoin="round" fill="none"/></g>
<g data-sketch-id="upward-curve-j1" data-interpretation="increasing curve" transform="translate(0 4800)"><rect x="0" y="0" width="1000" height="600" fill="#fcfbf7"/><text x="24" y="36" font-size="18" fill="#26231F">increasing curve (upward-curve-j1)</text><path d="M 176.9 427.5 L 261.7 423.2 L 342.2 388.4 L 417.1 338.9 L 499.4 278.1 L 583.2 202.2 L 658.8 150.5" stroke="#26231F" stroke-width="4" stroke-linecap="round" stroke-linejoin="round" fill="none"/></g>
<g data-sketch-id="fraction-bar-j1" data-interpretation="fraction partition" transform="translate(0 5400)"><rect x="0" y="0" width="1000" height="600" fill="#fcfbf7"/><text x="24" y="36" font-size="18" fill="#26231F">fraction partition (fraction-bar-j1)</text><path d="M 216.9 237.5 L 781.7 243.2 L 782.2 358.4 L 217.1 358.9 L 219.4 243.1 L 363.2 237.2 L 358.8 360.5 L 497.4 242.2 L 502.6 356.8 L 641.1 242.0 L 636.8 360.7" stroke="#26231F" stroke-width="4" stroke-linecap="round" stroke-linejoin="round" fill="none"/></g>
</svg>
